<?xml version="1.0" encoding="utf-8"?>
<!-- Generator: Adobe Illustrator 25.1.0, SVG Export Plug-In . SVG Version: 6.00 Build 0)  -->
<svg version="1.1" id="Capa_1" xmlns="http://www.w3.org/2000/svg" xmlns:xlink="http://www.w3.org/1999/xlink" x="0px" y="0px"
	 viewBox="0 0 25.7 25.7" style="enable-background:new 0 0 25.7 25.7;" xml:space="preserve">
<style type="text/css">
	.st0{display:none;}
	.st1{display:inline;}
	.st2{display:inline;fill:#FFFFFF;}
	.st3{fill:none;stroke:#000000;stroke-width:2;stroke-miterlimit:10;}
	.st4{display:none;fill:none;stroke:#000000;stroke-width:2;stroke-miterlimit:10;}
	.st5{display:none;fill:none;stroke:#000000;stroke-miterlimit:10;}
	.st6{display:inline;fill:none;stroke:#000000;stroke-width:2;stroke-miterlimit:10;}
	.st7{display:inline;fill:none;stroke:#000000;stroke-miterlimit:10;}
</style>
<g class="st0">
	<g class="st1">
		<g>
			<rect x="19.5" y="0.5" transform="matrix(0.7237 -0.6901 0.6901 0.7237 2.5034 16.0654)" width="3.6" height="8.9"/>
		</g>
		<g>
			<path d="M16.1,3.3l6.6,7l-3.3,7.4c-0.3,0.7-0.9,1.3-1.7,1.6L2.8,25.5l-1.2-1.3l9.5-9.1c0.6,0.4,1.3,0.4,1.8-0.1
				c0.5-0.5,0.5-1.2,0.2-1.8l0,0l-0.5-0.5l0,0c-0.6-0.4-1.3-0.4-1.8,0.1c-0.5,0.5-0.5,1.2-0.2,1.8l-9.5,9.1l-0.9-0.9L7,7.9
				c0.3-0.7,0.9-1.3,1.6-1.6L16.1,3.3z"/>
		</g>
	</g>
	<rect x="4.7" y="13.8" transform="matrix(0.6875 0.7262 -0.7262 0.6875 16.3509 2.5019)" class="st2" width="1.1" height="12.8"/>
	<rect x="10.9" y="6.9" transform="matrix(0.6875 0.7262 -0.7262 0.6875 13.0028 -5.9715)" class="st1" width="5.1" height="10.5"/>
</g>
<g>
	<path class="st3" d="M2.4,22.2c6.3-0.8,10.3-3.8,9.5-9.8c-0.6-4.6,2.1-8.8,8.4-9.6"/>
	<rect x="0.5" y="19.8" width="4.8" height="4.8"/>
	<rect x="18.5" y="0.4" width="4.8" height="4.8"/>
	<circle class="st0" cx="2.9" cy="21.9" r="2.7"/>
	<circle class="st0" cx="20.5" cy="2.9" r="2.7"/>
	<line class="st4" x1="10.8" y1="3" x2="13" y2="21.4"/>
	<rect x="9.2" y="0.3" transform="matrix(0.9925 -0.1223 0.1223 0.9925 -0.1312 1.3109)" class="st5" width="2.9" height="2.9"/>
	<rect x="11.8" y="21.4" transform="matrix(0.9925 -0.1223 0.1223 0.9925 -2.6945 1.7875)" class="st5" width="2.9" height="2.9"/>
	<path class="st0" d="M13.6,1.3l0.1,1.2c-3.3,1-5.7,3.7-6.6,6.9L6.5,4c0.4-0.2,0.6-0.6,0.6-1C6.9,2.4,6.4,2,5.9,2
		C5.3,2.1,4.9,2.6,5,3.2C5,3.6,5.3,4,5.7,4.1l0.9,7.6l-1,0.1L6,14.5l1-0.1L8,22c-0.4,0.2-0.6,0.6-0.6,1c0.1,0.6,0.6,1,1.2,0.9
		c0.6-0.1,1-0.6,0.9-1.2c-0.1-0.4-0.4-0.8-0.8-0.9L8,16.6c1.6,2.9,4.6,4.9,8.1,5.1l0.1,1.2c0,0.2,0.2,0.3,0.4,0.3l2.7-0.3
		c0.2,0,0.3-0.2,0.3-0.4l-0.3-2.7c0-0.2-0.2-0.3-0.4-0.3l-2.7,0.3c-0.2,0-0.3,0.2-0.3,0.4l0.1,0.8c-3.8-0.3-7.1-3-8.1-6.6l0.9-0.1
		l-0.3-2.7l-0.9,0.1c0.1-3.8,2.6-7.2,6.3-8.4L13.9,4c0,0.2,0.2,0.3,0.4,0.3L17.1,4c0.2,0,0.3-0.2,0.3-0.4L17,0.8
		c0-0.2-0.2-0.3-0.4-0.3l-2.7,0.3C13.7,0.9,13.5,1.1,13.6,1.3z M18.7,20.1l0.2,2l-2,0.2l-0.2-2L18.7,20.1z M16.4,1.3l0.2,2l-2,0.2
		l-0.2-2L16.4,1.3z"/>
	<path class="st4" d="M16.3,21.3c-4,0.2-8.4-2.7-9.1-8.3C5.8,4.5,14,2.6,14,2.6"/>
</g>
<g>
	<polyline points="25.3,18.7 17.3,22.2 17.8,12.5 	"/>
	<rect x="20.4" y="19.4" transform="matrix(0.9161 -0.4009 0.4009 0.9161 -7.0325 10.7263)" width="3.4" height="5.5"/>
</g>
<g class="st0">
	<line class="st6" x1="10.7" y1="4.2" x2="11.5" y2="7.4"/>
	<circle class="st7" cx="10.3" cy="2.8" r="1.3"/>
	<line class="st6" x1="14.6" y1="22.3" x2="13.8" y2="19"/>
	<circle class="st7" cx="15" cy="23.6" r="1.3"/>
</g>
</svg>
