<?xml version="1.0" encoding="UTF-8"?>
<svg id="Capa_1" xmlns="http://www.w3.org/2000/svg" version="1.1" viewBox="0 0 25.7 25.7">
  <!-- Generator: Adobe Illustrator 29.8.1, SVG Export Plug-In . SVG Version: 2.1.1 Build 2)  -->
  <defs>
    <style>
      .st0, .st1, .st2 {
        stroke: #000;
        stroke-miterlimit: 10;
      }

      .st0, .st2 {
        fill: none;
      }

      .st3, .st1 {
        fill: #fff;
      }

      .st2 {
        stroke-width: 2px;
      }

      .st4 {
        display: none;
      }
    </style>
  </defs>
  <g class="st4">
    <g>
      <rect x="19.53" y=".5" width="3.6" height="8.9" transform="translate(2.48 16.09) rotate(-43.64)"/>
      <path d="M16.1,3.3l6.6,7-3.3,7.4c-.3.7-.9,1.3-1.7,1.6l-14.9,6.2-1.2-1.3,9.5-9.1c.6.4,1.3.4,1.8-.1s.5-1.2.2-1.8h0l-.5-.5h0c-.6-.4-1.3-.4-1.8.1s-.5,1.2-.2,1.8L1.1,23.7l-.9-.9L7,7.9c.3-.7.9-1.3,1.6-1.6,0,0,7.5-3,7.5-3Z"/>
    </g>
    <rect class="st3" x="-1.11" y="19.65" width="12.8" height="1.1" transform="translate(-12.44 9.17) rotate(-43.43)"/>
    <rect x="8.18" y="9.6" width="10.5" height="5.1" transform="translate(-4.68 12.56) rotate(-43.43)"/>
  </g>
  <g class="st4">
    <line class="st2" x1="10.7" y1="4.2" x2="11.5" y2="7.4"/>
    <circle class="st0" cx="10.3" cy="2.8" r="1.3"/>
    <line class="st2" x1="14.6" y1="22.3" x2="13.8" y2="19"/>
    <circle class="st0" cx="15" cy="23.6" r="1.3"/>
  </g>
  <path class="st1" d="M2.85,2.85h4.58c8.51,0,15.42,6.91,15.42,15.42v4.58H2.85V2.85h0Z"/>
  <rect x=".45" y=".45" width="4.8" height="4.8"/>
  <rect x=".45" y="20.45" width="4.8" height="4.8"/>
  <rect x="20.45" y="20.45" width="4.8" height="4.8"/>
</svg>