<?xml version="1.0" encoding="UTF-8"?>
<svg id="Capa_1" xmlns="http://www.w3.org/2000/svg" version="1.1" viewBox="0 0 25.7 25.7">
  <!-- Generator: Adobe Illustrator 29.8.1, SVG Export Plug-In . SVG Version: 2.1.1 Build 2)  -->
  <defs>
    <style>
      .st0, .st1, .st2, .st3 {
        fill: none;
        stroke: #000;
      }

      .st0, .st2, .st3 {
        stroke-miterlimit: 10;
      }

      .st1 {
        stroke-miterlimit: 10;
        stroke-width: 1px;
      }

      .st1, .st2, .st4 {
        display: none;
      }

      .st2, .st3 {
        stroke-width: 2px;
      }

      .st5 {
        fill: #fff;
      }
    </style>
  </defs>
  <g class="st4">
    <g>
      <rect x="19.53" y=".5" width="3.6" height="8.9" transform="translate(2.48 16.09) rotate(-43.64)"/>
      <path d="M16.1,3.3l6.6,7-3.3,7.4c-.3.7-.9,1.3-1.7,1.6l-14.9,6.2-1.2-1.3,9.5-9.1c.6.4,1.3.4,1.8-.1s.5-1.2.2-1.8h0l-.5-.5h0c-.6-.4-1.3-.4-1.8.1s-.5,1.2-.2,1.8L1.1,23.7l-.9-.9L7,7.9c.3-.7.9-1.3,1.6-1.6l7.5-3Z"/>
    </g>
    <rect class="st5" x="-1.11" y="19.65" width="12.8" height="1.1" transform="translate(-12.44 9.17) rotate(-43.43)"/>
    <rect x="8.18" y="9.6" width="10.5" height="5.1" transform="translate(-4.68 12.56) rotate(-43.43)"/>
  </g>
  <g>
    <path class="st3" d="M2.4,22.2c6.3-.8,10.3-3.8,9.5-9.8-.6-4.6,2.1-8.8,8.4-9.6"/>
    <rect x=".5" y="19.8" width="4.8" height="4.8"/>
    <rect x="18.5" y=".4" width="4.8" height="4.8"/>
    <circle class="st4" cx="2.9" cy="21.9" r="2.7"/>
    <circle class="st4" cx="20.5" cy="2.9" r="2.7"/>
    <line class="st2" x1="10.8" y1="3" x2="13" y2="21.4"/>
    <rect class="st1" x="9.2" y=".3" width="2.9" height="2.9" transform="translate(-.13 1.32) rotate(-7.02)"/>
    <rect class="st1" x="11.8" y="21.4" width="2.9" height="2.9" transform="translate(-2.69 1.79) rotate(-7.02)"/>
    <path class="st4" d="M13.6,1.3l.1,1.2c-3.3,1-5.7,3.7-6.6,6.9l-.6-5.4c.4-.2.6-.6.6-1-.2-.6-.7-1-1.2-1-.6.1-1,.6-.9,1.2,0,.4.3.8.7.9l.9,7.6-1,.1.4,2.7,1-.1,1,7.6c-.4.2-.6.6-.6,1,.1.6.6,1,1.2.9s1-.6.9-1.2c-.1-.4-.4-.8-.8-.9l-.7-5.2c1.6,2.9,4.6,4.9,8.1,5.1l.1,1.2c0,.2.2.3.4.3l2.7-.3c.2,0,.3-.2.3-.4l-.3-2.7c0-.2-.2-.3-.4-.3l-2.7.3c-.2,0-.3.2-.3.4l.1.8c-3.8-.3-7.1-3-8.1-6.6l.9-.1-.3-2.7-.9.1c.1-3.8,2.6-7.2,6.3-8.4v.7c0,.2.2.3.4.3l2.8-.3c.2,0,.3-.2.3-.4l-.4-2.8c0-.2-.2-.3-.4-.3l-2.7.3c-.2.1-.4.3-.3.5ZM18.7,20.1l.2,2-2,.2-.2-2,2-.2ZM16.4,1.3l.2,2-2,.2-.2-2,2-.2Z"/>
    <path class="st2" d="M16.3,21.3c-4,.2-8.4-2.7-9.1-8.3C5.8,4.5,14,2.6,14,2.6"/>
  </g>
  <g class="st4">
    <line class="st3" x1="10.7" y1="4.2" x2="11.5" y2="7.4"/>
    <circle class="st0" cx="10.3" cy="2.8" r="1.3"/>
    <line class="st3" x1="14.6" y1="22.3" x2="13.8" y2="19"/>
    <circle class="st0" cx="15" cy="23.6" r="1.3"/>
  </g>
</svg>